<?xml version="1.0" encoding="UTF-8" standalone="no"?>
<!-- Created with Inkscape (http://www.inkscape.org/) -->
<svg id="svg2" xmlns:rdf="http://www.w3.org/1999/02/22-rdf-syntax-ns#" xmlns="http://www.w3.org/2000/svg" viewBox="0 0 335.98 513.83" version="1.1" xmlns:cc="http://creativecommons.org/ns#" xmlns:dc="http://purl.org/dc/elements/1.1/">
 <metadata id="metadata7">
  <rdf:RDF>
   <cc:Work rdf:about="">
    <dc:format>image/svg+xml</dc:format>
    <dc:type rdf:resource="http://purl.org/dc/dcmitype/StillImage"/>
    <dc:title/>
   </cc:Work>
  </rdf:RDF>
 </metadata>
 <g id="layer1" transform="translate(-252.87081,-335.1884)">
  <g id="g3014" transform="translate(-39.395946,-57.578693)">
   <path id="path3016" fill="#002c69" d="m297.27,905.11c-1.4366-0.78076-3.1284-2.6752-3.7596-4.21-0.85305-2.0742-1.081-52.711-0.88805-197.29l0.25955-194.5,45.96-0.26023c29.282-0.1658,45.612,0.0872,45,0.6973-0.52813,0.52663-8.1602,3.5801-16.96,6.7855l-16,5.828v109.2,109.2l2.278,2.2777,2.278,2.2777h71.222c81.333,0,79.347,0.17345,97.222-8.4928,46.725-22.654,61.329-80.838,30.999-123.51-4.2434-5.9698-13.311-15.137-18.962-19.171l-2.963-2.1148,4.5748-5.3571c7.113-8.3293,12.377-17.103,15.974-26.627,3.2236-8.5335,3.2984-9.0908,3.3224-24.73,0.021-13.722-0.30032-17.129-2.2573-23.932-7.3127-25.42-25.029-44.446-49.807-53.488-16.109-5.879-20.716-6.4193-59.882-7.0241l-36-0.55585v-28.5-28.5h107.22,107.22l2.2777,2.2777,2.2777,2.2778,0.29298,249.22c0.20749,176.49-0.0226,250.31-0.78839,252.97-2.1059,7.2913,11.115,6.7603-167.2,6.7158-136.5-0.0341-160.69-0.25076-162.91-1.4596zm67.541-37.072c1.2918-1.2918,1.5714-4.2972,1.5714-16.889v-15.317l14.25-0.39336c12.749-0.35193,14.838-0.66594,19.836-2.981,6.4602-2.9924,11.943-8.1039,15.15-14.125,1.8511-3.4752,2.2509-5.8178,2.2568-13.223,0.006-8.1142-0.28477-9.5271-2.9592-14.356-3.2938-5.9467-7.765-10.075-14.534-13.421-4.1401-2.0461-6.187-2.2506-25.595-2.5579-18.583-0.29417-21.292-0.13682-22.75,1.3214-1.4913,1.4913-1.6554,6.1033-1.6554,46.534,0,50.706-0.66468,46.89,8.1786,46.948,2.9542,0.0192,5.2578-0.54878,6.25-1.541zm2.3214-48.004c-0.4125-0.41712-0.75-7.2084-0.75-15.092v-14.333h12.599c14.272,0,18.096,1.1412,21.301,6.3565,3.2334,5.2615,3.495,9.5425,0.89339,14.621-3.603,7.033-7.0268,8.4583-21.294,8.8646-6.6,0.18796-12.338,0.00046-12.75-0.41667zm60.165,48.62c0.98107-0.52506,3.0437-4.4626,4.5837-8.75s3.2378-8.3579,3.7729-9.0454c0.72309-0.92894,6.3295-1.25,21.828-1.25,23.825,0,21.989-0.71732,25.43,9.9384,2.414,7.4751,5.2014,10.062,10.843,10.062,5.7101,0,7.6272-0.76352,7.6272-3.0376,0-3.76-32.057-88.446-34.149-90.212-1.5688-1.3249-3.8834-1.75-9.5272-1.75-4.1002,0-8.2918,0.44789-9.3147,0.99532-1.0229,0.54742-3.2585,4.6223-4.968,9.0552-8.7292,22.635-30.041,81.028-30.041,82.31,0,0.8098,0.5625,1.6993,1.25,1.9768,2.2104,0.89193,10.824,0.6931,12.665-0.29236zm15.671-34.906c-0.79978-1.2941,13.574-41.253,14.704-40.876,1.2956,0.43188,15.853,39.696,15.143,40.845-0.70782,1.1453-29.14,1.175-29.847,0.0312zm91.843,34.289c1.3012-1.3012,1.5714-4.4,1.5714-18.019v-16.447l15.55-27.6c8.5528-15.18,15.411-28.334,15.24-29.231-0.40805-2.1417-12.423-2.8804-14.987-0.92144-0.92869,0.70954-6.3837,9.6151-12.122,19.79-5.7385,10.175-11.028,18.5-11.755,18.5-0.72658,0-6.1234-8.4992-11.993-18.887s-11.404-19.297-12.299-19.798c-0.89504-0.50089-4.4368-0.7767-7.8707-0.6129-4.9936,0.23819-6.3096,0.646-6.5747,2.0373-0.18224,0.9567,6.6757,14.16,15.24,29.341l15.571,27.602v16.859c0,19.15-0.11936,18.874,8.1786,18.928,2.9542,0.0192,5.2578-0.54878,6.25-1.541zm-124.95-184.86-2.4916-2.4916,0.25553-86.79,0.25553-86.79,35,0,35,0,5.3188,2.9464c9.8929,5.4802,15.234,13.877,15.938,25.054,0.62754,9.9715-2.0748,16.762-9.2973,23.363-6.5973,6.0296-11.55,7.7563-24.859,8.668-15.141,1.037-14.6,0.021-14.6,27.423,0,28.988-2.0532,26.837,26.026,27.273l17.526,0.27239,6.6816,3.292c12.226,6.0238,18.24,16.353,17.587,30.208-0.57291,12.167-6.8788,21.893-17.627,27.187-4.6481,2.2895-5.111,2.3153-46.459,2.5941l-41.764,0.28154-2.4916-2.4916zm-116.26-233.76c-1.9123-1.9123-1.7008-47.976,0.2374-51.724,2.4694-4.7752,4.911-5.1513,31.549-4.8595l24.499,0.26834v28.5,28.5l-27.535,0.26544c-20.578,0.19838-27.842-0.0416-28.75-0.95z"/>
  </g>
 </g>
</svg>
