<?xml version="1.0" encoding="UTF-8" standalone="no"?>
<!-- Created with Inkscape (http://www.inkscape.org/) -->
<svg id="svg3004" xmlns:rdf="http://www.w3.org/1999/02/22-rdf-syntax-ns#" xmlns="http://www.w3.org/2000/svg" xml:space="preserve" viewBox="0 0 573.39 183.09" version="1.1" xmlns:cc="http://creativecommons.org/ns#" xmlns:dc="http://purl.org/dc/elements/1.1/"><metadata id="metadata3010"><rdf:RDF><cc:Work rdf:about=""><dc:format>image/svg+xml</dc:format><dc:type rdf:resource="http://purl.org/dc/dcmitype/StillImage"/><dc:title/></cc:Work></rdf:RDF></metadata><defs id="defs3008"><clipPath id="clipPath3018" clipPathUnits="userSpaceOnUse"><path id="path3020" d="m0,419.53,595.28,0v-419.53h-595.28v419.53z"/></clipPath><clipPath id="clipPath3256" clipPathUnits="userSpaceOnUse"><path id="path3258" d="m356.55,262.87c-4.401-1.431-7.232-4.849-6.327-7.637,0.906-2.789,5.206-3.891,9.606-2.461,4.401,1.43,8.091,6.21,7.185,8.998-0.499,1.536-2.289,2.147-4.532,2.147-1.828,0-3.957-0.406-5.932-1.047"/></clipPath><clipPath id="clipPath3296" clipPathUnits="userSpaceOnUse"><path id="path3298" d="m0,419.53,595.28,0v-419.53h-595.28v419.53z"/></clipPath><clipPath id="clipPath3508" clipPathUnits="userSpaceOnUse"><path id="path3510" d="m450.56,247.01c0-7.148,8.018-12.943,17.908-12.943s17.907,5.795,17.907,12.943-8.017,12.942-17.907,12.942-17.908-5.794-17.908-12.942"/></clipPath><clipPath id="clipPath3528" clipPathUnits="userSpaceOnUse"><path id="path3530" d="m0,419.53,595.28,0v-419.53h-595.28v419.53z"/></clipPath><clipPath id="clipPath3546" clipPathUnits="userSpaceOnUse"><path id="path3548" d="m214.12,201.99s-2.288-9.839,7.558-9.974c0,0,0.653,8.498-7.558,10.116v-0.142z"/></clipPath><clipPath id="clipPath3562" clipPathUnits="userSpaceOnUse"><path id="path3564" d="m0,419.53,595.28,0v-419.53h-595.28v419.53z"/></clipPath><clipPath id="clipPath3586" clipPathUnits="userSpaceOnUse"><path id="path3588" d="m225.78,221.55c9.846,0.135,7.558,9.973,7.558,9.973v0.144c-8.211-1.619-7.558-10.117-7.558-10.117"/></clipPath><clipPath id="clipPath3602" clipPathUnits="userSpaceOnUse"><path id="path3604" d="m0,419.53,595.28,0v-419.53h-595.28v419.53z"/></clipPath><clipPath id="clipPath3620" clipPathUnits="userSpaceOnUse"><path id="path3622" d="m356.55,262.87c-4.401-1.431-7.232-4.849-6.327-7.637,0.906-2.789,5.206-3.891,9.606-2.461,4.401,1.43,8.091,6.21,7.185,8.998-0.499,1.536-2.289,2.147-4.532,2.147-1.828,0-3.957-0.406-5.932-1.047"/></clipPath><clipPath id="clipPath3640" clipPathUnits="userSpaceOnUse"><path id="path3642" d="m0,419.53,595.28,0v-419.53h-595.28v419.53z"/></clipPath></defs><g id="g3012" transform="matrix(1.25,0,0,-1.25,-83.921509,356.18725)"><g id="g3014"><g id="g3016" clip-path="url(#clipPath3018)"><g id="g3022" transform="translate(345.2891,204.2529)"><path id="path3024" fill-rule="nonzero" fill="#818582" d="m0,0c-0.777-1.199-3.331-0.922-5.702,0.617-2.374,1.539-3.669,3.757-2.892,4.955,0.779,1.199,3.33,0.922,5.702-0.617,2.373-1.541,3.669-3.76,2.892-4.955"/><path id="path3026" stroke-linejoin="round" d="m0,0c-0.777-1.199-3.331-0.922-5.702,0.617-2.374,1.539-3.669,3.757-2.892,4.955,0.779,1.199,3.33,0.922,5.702-0.617,2.373-1.541,3.669-3.76,2.892-4.955z" stroke="#231f20" stroke-linecap="round" stroke-miterlimit="10" stroke-dasharray="none" stroke-width="0.5" fill="none"/><path id="path3030" d="m-199.4,23.649c0-0.656-0.263-4.293-0.786-10.91-0.46-5.701-0.656-10.19-0.59-13.465,0.064-10.812,1.966-17.627,5.701-20.444,1.309-0.982,3.243-1.246,5.799-0.787,2.489,0.393,4.487,2.26,5.995,5.604,1.441,3.079,2.423,7.239,2.949,12.482,0.392,5.175,0.457,9.941,0.196,14.299-0.263,4.358-0.722,7.978-1.376,10.862-0.066,0.457,0.033,0.899,0.295,1.327,0.261,0.425,0.622,0.687,1.081,0.785,0.458,0.099,0.901,0.017,1.327-0.245,0.425-0.263,0.703-0.624,0.835-1.081,0.655-3.081,1.114-6.897,1.377-11.45,0.26-4.556,0.196-9.519-0.197-14.892-0.525-5.634-1.606-10.188-3.244-13.662-2.097-4.388-4.98-6.912-8.649-7.566-3.538-0.592-6.388-0.066-8.551,1.572-4.653,3.471-7.012,11.17-7.077,23.097-0.065,3.539,0.131,8.159,0.59,13.859,0.524,6.552,0.786,10.155,0.786,10.811,0,0.458,0.18,0.851,0.541,1.18,0.36,0.327,0.787,0.491,1.278,0.491s0.9-0.181,1.228-0.54c0.327-0.362,0.492-0.805,0.492-1.327" fill-rule="nonzero" fill="#231f20"/><path id="path3032" stroke-linejoin="miter" d="m-199.4,23.649c0-0.656-0.263-4.293-0.786-10.91-0.46-5.701-0.656-10.19-0.59-13.465,0.064-10.812,1.966-17.627,5.701-20.444,1.309-0.982,3.243-1.246,5.799-0.787,2.489,0.393,4.487,2.26,5.995,5.604,1.441,3.079,2.423,7.239,2.949,12.482,0.392,5.175,0.457,9.941,0.196,14.299-0.263,4.358-0.722,7.978-1.376,10.862-0.066,0.457,0.033,0.899,0.295,1.327,0.261,0.425,0.622,0.687,1.081,0.785,0.458,0.099,0.901,0.017,1.327-0.245,0.425-0.263,0.703-0.624,0.835-1.081,0.655-3.081,1.114-6.897,1.377-11.45,0.26-4.556,0.196-9.519-0.197-14.892-0.525-5.634-1.606-10.188-3.244-13.662-2.097-4.388-4.98-6.912-8.649-7.566-3.538-0.592-6.388-0.066-8.551,1.572-4.653,3.471-7.012,11.17-7.077,23.097-0.065,3.539,0.131,8.159,0.59,13.859,0.524,6.552,0.786,10.155,0.786,10.811,0,0.458,0.18,0.851,0.541,1.18,0.36,0.327,0.787,0.491,1.278,0.491s0.9-0.181,1.228-0.54c0.327-0.362,0.492-0.805,0.492-1.327z" stroke="#231f20" stroke-linecap="butt" stroke-miterlimit="10" stroke-dasharray="none" stroke-width="1" fill="none"/><path id="path3036" fill-rule="nonzero" fill="#231f20" d="m66.513,43.363c-1.094-26.717-0.964-49.227,0.385-67.531,0-0.449-0.145-0.852-0.434-1.205-0.288-0.352-0.673-0.545-1.155-0.578-0.482-0.032-0.9,0.097-1.253,0.384-0.354,0.289-0.563,0.692-0.625,1.205-1.349,18.369-1.479,41.008-0.387,67.917,0,0.449,0.177,0.834,0.531,1.157,0.352,0.32,0.77,0.481,1.252,0.481s0.882-0.178,1.205-0.529c0.32-0.355,0.481-0.788,0.481-1.301"/><path id="path3038" stroke-linejoin="miter" d="m66.513,43.363c-1.094-26.717-0.964-49.227,0.385-67.531,0-0.449-0.145-0.852-0.434-1.205-0.288-0.352-0.673-0.545-1.155-0.578-0.482-0.032-0.9,0.097-1.253,0.384-0.354,0.289-0.563,0.692-0.625,1.205-1.349,18.369-1.479,41.008-0.387,67.917,0,0.449,0.177,0.834,0.531,1.157,0.352,0.32,0.77,0.481,1.252,0.481s0.882-0.178,1.205-0.529c0.32-0.355,0.481-0.788,0.481-1.301z" stroke="#231f20" stroke-linecap="butt" stroke-miterlimit="10" stroke-dasharray="none" stroke-width="1" fill="none"/><path id="path3042" stroke-linejoin="round" d="m39.244,7.4781s-3.019-3.772-4.044-7.681" stroke="#231f20" stroke-linecap="round" stroke-miterlimit="10" stroke-dasharray="none" stroke-width="0.5" fill="none"/><path id="path3046" stroke-linejoin="round" d="m8.2295-15.445s-5.912-4.305-3.91-10.463" stroke="#231f20" stroke-linecap="round" stroke-miterlimit="10" stroke-dasharray="none" stroke-width="0.5" fill="none"/><path id="path3050" stroke-linejoin="round" d="m3.2197-11.735s-4.351-3.166-4.932-11.772" stroke="#231f20" stroke-linecap="round" stroke-miterlimit="10" stroke-dasharray="none" stroke-width="0.5" fill="none"/><path id="path3054" stroke-linejoin="round" d="m26.384-12.974s3.46-4.864,3.204-12.341" stroke="#231f20" stroke-linecap="round" stroke-miterlimit="10" stroke-dasharray="none" stroke-width="0.5" fill="none"/><path id="path3058" stroke-linejoin="round" d="m37.988-13.313s4.597-3.149,2.966-11.839" stroke="#231f20" stroke-linecap="round" stroke-miterlimit="10" stroke-dasharray="none" stroke-width="0.5" fill="none"/><path id="path3062" stroke-linejoin="round" d="m34.839,1.0489s0.515,7.84-6.903,4.904c0,0-5.736,6.224-9.582-0.508,0,0-4.983,5.446-9.785-0.982,0,0-5.2,3.824-5.774-1.816,0,0-4.762,1.423-5.702-3.255,0,0-0.122-3.252,3.465-2.547,0,0-8.039-3.885-0.634-9.18,0,0,3.356-1.428,6.168,0.551,0,0-0.196-5.919,4.983-5.433,0,0,6.407-0.3,7.06,4.285,0,0,1.561-3.285,5.641-2.874,0,0,5.876-1.055,6.446,4.295,0,0,4.749-7.868,10.612-0.865,0,0,1.02,3.637-3.083,4.473,0,0,6.469,3.709,1.106,8.596,0,0-2.761,1.004-4.018,0.356" fill-rule="nonzero" stroke="#231f20" stroke-linecap="round" stroke-miterlimit="10" stroke-dasharray="none" stroke-width="0.5" fill="#f4f4f4"/><g id="g3064" transform="translate(-177.5108,-4.039)"><path id="path3066" stroke-linejoin="miter" d="M0,0,4.132-2.5" fill-rule="nonzero" stroke="#231f20" stroke-linecap="butt" stroke-miterlimit="10" stroke-dasharray="none" stroke-width="0.5" fill="#f89ca6"/><g id="g3068" transform="translate(0.7642,9.7622)"><path id="path3070" stroke-linejoin="miter" d="m0,0s2.337,4.332,7.396,2.354c0,0-0.538-0.876-1.927-1.001,0,0,1.237-3.635-4.104-4.215" fill-rule="nonzero" stroke="#231f20" stroke-linecap="butt" stroke-miterlimit="10" stroke-dasharray="none" stroke-width="0.5" fill="#f58ba1"/><g id="g3072" transform="translate(-13.5664,-0.7686)"><path id="path3074" stroke-linejoin="miter" d="m0,0s-0.928,4.833-6.347,4.464c0,0,0.248-0.996,1.536-1.534,0,0-2.271-3.096,2.651-5.252" fill-rule="nonzero" stroke="#231f20" stroke-linecap="butt" stroke-miterlimit="10" stroke-dasharray="none" stroke-width="0.5" fill="#f58ba1"/><g id="g3076" transform="translate(15.2627,-2.7544)"><path id="path3078" fill-rule="nonzero" fill="#f58ba1" d="m0,0c0.501-4.603-2.911-8.747-7.621-9.259-4.709-0.512-10.043,2.115-10.544,6.718s3.637,9.241,8.348,9.75c4.708,0.514,9.317-2.607,9.817-7.209"/><path id="path3080" stroke-linejoin="miter" d="m0,0c0.501-4.603-2.911-8.747-7.621-9.259-4.709-0.512-10.043,2.115-10.544,6.718s3.637,9.241,8.348,9.75c4.708,0.514,9.317-2.607,9.817-7.209z" stroke="#231f20" stroke-linecap="butt" stroke-miterlimit="10" stroke-dasharray="none" stroke-width="0.5" fill="none"/><g id="g3082" transform="translate(-4.7027,-3.0439)"><path id="path3084" fill-rule="nonzero" fill="#f04154" d="M0,0c0.166-1.531-1.469-2.967-3.654-3.205-2.183-0.237-4.089,0.815-4.255,2.348-0.166,1.531,1.469,2.964,3.653,3.202,2.184,0.237,4.089-0.81,4.256-2.345"/><path id="path3086" stroke-linejoin="miter" d="M0,0c0.166-1.531-1.469-2.967-3.654-3.205-2.183-0.237-4.089,0.815-4.255,2.348-0.166,1.531,1.469,2.964,3.653,3.202,2.184,0.237,4.089-0.81,4.256-2.345z" stroke="#231f20" stroke-linecap="butt" stroke-miterlimit="10" stroke-dasharray="none" stroke-width="0.5" fill="none"/><g id="g3088" transform="translate(0.9434,4.874)"><path id="path3090" fill-rule="nonzero" fill="#231f20" d="m0,0c0.054-0.496-0.321-0.947-0.837-1.001-0.518-0.058-0.98,0.301-1.035,0.796-0.055,0.498,0.321,0.942,0.837,0.999,0.518,0.057,0.981-0.298,1.035-0.794"/><g id="g3092" transform="translate(-7.1353,-0.2148)"><path id="path3094" fill-rule="nonzero" fill="#231f20" d="m0,0c0.053-0.497-0.322-0.943-0.839-1-0.518-0.056-0.981,0.301-1.035,0.797-0.054,0.495,0.322,0.942,0.839,0.997,0.517,0.057,0.981-0.298,1.035-0.794"/><g id="g3096" transform="translate(35.5171,-5.9507)"><path id="path3098" fill-rule="nonzero" fill="#231f20" d="M0,0c2.02,0.22,4.973,0.425,6.185,2.379,0.551,0.89,1.013,4.107-0.96,3.302-2.377-0.97-0.423-2.361,1.129-2.728,2.251-0.533,2.794,1.027,3.134,2.863,0.051,0.272-0.908,0.104-0.956-0.156-0.18-0.973-0.103-2.611-1.676-2.239-0.51,0.121-0.993,0.332-1.435,0.613-0.606,0.385-0.29,1.761,0.172,0.884,0.378-0.718,0.185-1.628-0.129-2.314-0.842-1.841-3.313-1.979-5.058-2.169-0.274-0.03-1.043-0.504-0.406-0.435"/><g id="g3100" transform="translate(-19.2666,-9.395)"><path id="path3102" stroke-linejoin="miter" d="M0,0s-5.876-3.704-6.055-12.94" stroke="#231f20" stroke-linecap="butt" stroke-miterlimit="10" stroke-dasharray="none" stroke-width="0.5" fill="none"/><g id="g3104" transform="translate(2.1861,-3.7862)"><path id="path3106" stroke-linejoin="miter" d="M0,0s-3.827-2.418-3.549-10.932" stroke="#231f20" stroke-linecap="butt" stroke-miterlimit="10" stroke-dasharray="none" stroke-width="0.5" fill="none"/><g id="g3108" transform="translate(14.7221,-0.3144)"><path id="path3110" stroke-linejoin="miter" d="M0,0s1.808-4.596-0.687-9.586" stroke="#231f20" stroke-linecap="butt" stroke-miterlimit="10" stroke-dasharray="none" stroke-width="0.5" fill="none"/><g id="g3112" transform="translate(6.0948,0)"><path id="path3114" stroke-linejoin="miter" d="M0,0s3.922-3.043,2.067-9.121" stroke="#231f20" stroke-linecap="butt" stroke-miterlimit="10" stroke-dasharray="none" stroke-width="0.5" fill="none"/><g id="g3116" transform="translate(2.2631,7.5342)"><path id="path3118" fill-rule="nonzero" fill="#f58ba1" d="m0,0c0.59-5.44-2.275-9.726-11.055-10.679-8.779-0.955-18.954,3.248-19.546,8.69-0.591,5.44,5.921,9.766,14.7,10.719,8.779,0.955,15.309-3.288,15.901-8.73"/><path id="path3120" stroke-linejoin="miter" d="m0,0c0.59-5.44-2.275-9.726-11.055-10.679-8.779-0.955-18.954,3.248-19.546,8.69-0.591,5.44,5.921,9.766,14.7,10.719,8.779,0.955,15.309-3.288,15.901-8.73z" stroke="#231f20" stroke-linecap="butt" stroke-miterlimit="10" stroke-dasharray="none" stroke-width="0.5" fill="none"/><g id="g3122" transform="translate(-3.1464,51.4599)"><path id="path3124" fill-rule="nonzero" fill="#231f20" d="m0,0c-1.093-26.717-0.963-49.227,0.386-67.531,0-0.449-0.145-0.852-0.434-1.205-0.289-0.352-0.675-0.545-1.156-0.578-0.482-0.032-0.9,0.097-1.252,0.384-0.355,0.289-0.564,0.692-0.627,1.205-1.349,18.369-1.478,41.008-0.385,67.917,0,0.449,0.176,0.834,0.53,1.157,0.352,0.32,0.771,0.481,1.252,0.481,0.482,0,0.882-0.178,1.205-0.529,0.32-0.355,0.481-0.788,0.481-1.301"/><path id="path3126" stroke-linejoin="miter" d="m0,0c-1.093-26.717-0.963-49.227,0.386-67.531,0-0.449-0.145-0.852-0.434-1.205-0.289-0.352-0.675-0.545-1.156-0.578-0.482-0.032-0.9,0.097-1.252,0.384-0.355,0.289-0.564,0.692-0.627,1.205-1.349,18.369-1.478,41.008-0.385,67.917,0,0.449,0.176,0.834,0.53,1.157,0.352,0.32,0.771,0.481,1.252,0.481,0.482,0,0.882-0.178,1.205-0.529,0.32-0.355,0.481-0.788,0.481-1.301z" stroke="#231f20" stroke-linecap="butt" stroke-miterlimit="10" stroke-dasharray="none" stroke-width="1" fill="none"/><g id="g3128" transform="translate(103.2055,-44.5058)"><path id="path3130" fill-rule="nonzero" fill="#231f20" d="m0,0c0.128-6.424,0.417-12.589,0.867-18.498,3.019,0.514,6.022,1.572,9.007,3.178,2.987,1.606,5.475,3.469,7.466,5.589,2.954,3.211,5.011,7.418,6.167,12.621,1.219,5.457,0.674,9.761-1.639,12.908-2.055,2.826-4.785,4.046-8.187,3.66-3.406-0.384-6.135-2.056-8.19-5.008-3.34-4.818-5.171-9.571-5.491-14.258v-0.192zm-2.504-20.426c-1.349,16.765-1.381,37.765-0.096,63.005,0,0.448,0.176,0.834,0.529,1.155,0.352,0.322,0.77,0.483,1.253,0.483,0.481,0,0.882-0.178,1.204-0.53,0.321-0.354,0.481-0.788,0.481-1.3-0.577-11.626-0.9-21.805-0.964-30.539,0.772,1.542,1.67,3.05,2.698,4.527,1.67,2.375,3.837,4.174,6.503,5.396,2.664,1.219,5.458,1.541,8.381,0.962,2.922-0.577,5.347-2.184,7.274-4.816,2.824-4.046,3.531-9.312,2.118-15.798-1.22-5.78-3.564-10.501-7.031-14.163-2.313-2.505-5.171-4.657-8.575-6.454-3.405-1.799-6.839-2.986-10.307-3.565-0.257-0.705-0.772-1.091-1.541-1.156-0.45-0.062-0.853,0.065-1.205,0.385-0.353,0.322-0.562,0.74-0.626,1.252l-0.096,0.676v0.191,0.289z"/><path id="path3132" stroke-linejoin="miter" d="m0,0c0.128-6.424,0.417-12.589,0.867-18.498,3.019,0.514,6.022,1.572,9.007,3.178,2.987,1.606,5.475,3.469,7.466,5.589,2.954,3.211,5.011,7.418,6.167,12.621,1.219,5.457,0.674,9.761-1.639,12.908-2.055,2.826-4.785,4.046-8.187,3.66-3.406-0.384-6.135-2.056-8.19-5.008-3.34-4.818-5.171-9.571-5.491-14.258v-0.192zm-2.504-20.426c-1.349,16.765-1.381,37.765-0.096,63.005,0,0.448,0.176,0.834,0.529,1.155,0.352,0.322,0.77,0.483,1.253,0.483,0.481,0,0.882-0.178,1.204-0.53,0.321-0.354,0.481-0.788,0.481-1.3-0.577-11.626-0.9-21.805-0.964-30.539,0.772,1.542,1.67,3.05,2.698,4.527,1.67,2.375,3.837,4.174,6.503,5.396,2.664,1.219,5.458,1.541,8.381,0.962,2.922-0.577,5.347-2.184,7.274-4.816,2.824-4.046,3.531-9.312,2.118-15.798-1.22-5.78-3.564-10.501-7.031-14.163-2.313-2.505-5.171-4.657-8.575-6.454-3.405-1.799-6.839-2.986-10.307-3.565-0.257-0.705-0.772-1.091-1.541-1.156-0.45-0.062-0.853,0.065-1.205,0.385-0.353,0.322-0.562,0.74-0.626,1.252l-0.096,0.676v0.191,0.289z" stroke="#231f20" stroke-linecap="butt" stroke-miterlimit="10" stroke-dasharray="none" stroke-width="1" fill="none"/><g id="g3134" transform="translate(75.2383,21.2885)"><path id="path3136" fill-rule="nonzero" fill="#231f20" d="m0,0c-2.827,2.248-6.006,2.119-9.537-0.385-3.469-2.505-6.616-6.616-9.442-12.331-2.761-5.652-4.334-11.047-4.719-16.183-0.386-5.268,0.64-8.768,3.082-10.503,2.182-1.605,4.336-1.541,6.454,0.194,2.12,1.734,4.206,4.913,6.262,9.538,1.477,3.338,3.05,7.577,4.72,12.715,1.736,5.395,2.699,8.252,2.891,8.575v0.288,0.482,0.386c0.063,0.578,0.192,1.059,0.386,1.445,0.448,0.834,1.187,1.218,2.216,1.156,0.577-0.065,1.026-0.386,1.348-0.964,0.128-0.129,0.193-0.322,0.193-0.578,0.062-0.13,0.112-0.337,0.144-0.626,0.031-0.289,0.048-0.884,0.048-1.782,0.063-2.635,0.16-5.043,0.29-7.225,0.062-1.221,0.127-2.987,0.192-5.298,0.127-2.57,0.255-4.529,0.385-5.877,0.449-6.551,1.06-11.724,1.831-15.513,0.063-0.449-0.033-0.865-0.29-1.25-0.257-0.387-0.626-0.627-1.107-0.722-0.482-0.098-0.915-0.016-1.301,0.24-0.385,0.258-0.643,0.642-0.771,1.156-0.708,3.854-1.317,9.153-1.83,15.896l-0.289,5.877c-0.13,2.504-0.225,4.27-0.289,5.298v0.193l-0.675-2.215c-1.733-5.331-3.372-9.699-4.913-13.103-2.311-5.075-4.72-8.639-7.224-10.694-3.469-2.953-7.066-3.115-10.79-0.481-3.405,2.504-4.881,7.032-4.431,13.584,0.447,5.651,2.15,11.496,5.105,17.532,3.082,6.166,6.615,10.694,10.597,13.583,4.88,3.531,9.407,3.629,13.584,0.29,0.385-0.323,0.609-0.708,0.674-1.156,0.063-0.45-0.065-0.867-0.386-1.252-0.322-0.387-0.707-0.612-1.156-0.675-0.45-0.064-0.867,0.063-1.252,0.385"/><path id="path3138" stroke-linejoin="miter" d="m0,0c-2.827,2.248-6.006,2.119-9.537-0.385-3.469-2.505-6.616-6.616-9.442-12.331-2.761-5.652-4.334-11.047-4.719-16.183-0.386-5.268,0.64-8.768,3.082-10.503,2.182-1.605,4.336-1.541,6.454,0.194,2.12,1.734,4.206,4.913,6.262,9.538,1.477,3.338,3.05,7.577,4.72,12.715,1.736,5.395,2.699,8.252,2.891,8.575v0.288,0.482,0.386c0.063,0.578,0.192,1.059,0.386,1.445,0.448,0.834,1.187,1.218,2.216,1.156,0.577-0.065,1.026-0.386,1.348-0.964,0.128-0.129,0.193-0.322,0.193-0.578,0.062-0.13,0.112-0.337,0.144-0.626,0.031-0.289,0.048-0.884,0.048-1.782,0.063-2.635,0.16-5.043,0.29-7.225,0.062-1.221,0.127-2.987,0.192-5.298,0.127-2.57,0.255-4.529,0.385-5.877,0.449-6.551,1.06-11.724,1.831-15.513,0.063-0.449-0.033-0.865-0.29-1.25-0.257-0.387-0.626-0.627-1.107-0.722-0.482-0.098-0.915-0.016-1.301,0.24-0.385,0.258-0.643,0.642-0.771,1.156-0.708,3.854-1.317,9.153-1.83,15.896l-0.289,5.877c-0.13,2.504-0.225,4.27-0.289,5.298v0.193l-0.675-2.215c-1.733-5.331-3.372-9.699-4.913-13.103-2.311-5.075-4.72-8.639-7.224-10.694-3.469-2.953-7.066-3.115-10.79-0.481-3.405,2.504-4.881,7.032-4.431,13.584,0.447,5.651,2.15,11.496,5.105,17.532,3.082,6.166,6.615,10.694,10.597,13.583,4.88,3.531,9.407,3.629,13.584,0.29,0.385-0.323,0.609-0.708,0.674-1.156,0.063-0.45-0.065-0.867-0.386-1.252-0.322-0.387-0.707-0.612-1.156-0.675-0.45-0.064-0.867,0.063-1.252,0.385z" stroke="#231f20" stroke-linecap="butt" stroke-miterlimit="10" stroke-dasharray="none" stroke-width="1" fill="none"/><g id="g3140" transform="translate(65.0938,0.6748)"><path id="path3142" fill-rule="nonzero" fill="#231f20" d="m0,0c-2.955-1.799-5.395-4.929-7.321-9.393-1.928-4.463-2.987-9.199-3.18-14.208-0.192-5.396,0.642-9.668,2.505-12.816,1.927-3.339,4.816-4.849,8.671-4.527,3.531,0.256,6.581,2.279,9.151,6.069,2.633,3.663,4.11,8.061,4.432,13.2,0.385,5.329-0.612,9.986-2.987,13.969-2.376,3.981-6.133,6.55-11.271,7.706m1.444,3.18c4.046-0.964,7.37-2.811,9.971-5.54,2.603-2.731,4.384-5.733,5.348-9.007,0.898-3.341,1.218-6.84,0.962-10.501-0.385-5.717-2.104-10.805-5.154-15.271-3.05-4.463-6.952-6.887-11.704-7.272-5.203-0.449-9.152,1.604-11.849,6.164-2.249,3.726-3.245,8.64-2.987,14.742,0.194,5.78,1.508,11.237,3.95,16.376,2.375,5.266,5.523,8.829,9.44,10.693,0.771,0.385,1.446,0.256,2.023-0.384"/><path id="path3144" stroke-linejoin="miter" d="m0,0c-2.955-1.799-5.395-4.929-7.321-9.393-1.928-4.463-2.987-9.199-3.18-14.208-0.192-5.396,0.642-9.668,2.505-12.816,1.927-3.339,4.816-4.849,8.671-4.527,3.531,0.256,6.581,2.279,9.151,6.069,2.633,3.663,4.11,8.061,4.432,13.2,0.385,5.329-0.612,9.986-2.987,13.969-2.376,3.981-6.133,6.55-11.271,7.706zm1.444,3.18c4.046-0.964,7.37-2.811,9.971-5.54,2.603-2.731,4.384-5.733,5.348-9.007,0.898-3.341,1.218-6.84,0.962-10.501-0.385-5.717-2.104-10.805-5.154-15.271-3.05-4.463-6.952-6.887-11.704-7.272-5.203-0.449-9.152,1.604-11.849,6.164-2.249,3.726-3.245,8.64-2.987,14.742,0.194,5.78,1.508,11.237,3.95,16.376,2.375,5.266,5.523,8.829,9.44,10.693,0.771,0.385,1.446,0.256,2.023-0.384z" stroke="#231f20" stroke-linecap="butt" stroke-miterlimit="10" stroke-dasharray="none" stroke-width="1" fill="none"/><g id="g3146" transform="translate(54.1406,0)"><path id="path3148" fill-rule="nonzero" fill="#231f20" d="m0,0c-2.954-1.799-5.395-4.929-7.32-9.393-1.928-4.463-2.988-9.199-3.18-14.208-0.192-5.396,0.642-9.668,2.505-12.816,1.927-3.339,4.816-4.849,8.67-4.527,3.531,0.256,6.582,2.279,9.152,6.069,2.632,3.663,4.109,8.061,4.431,13.2,0.385,5.329-0.611,9.986-2.987,13.969-2.376,3.981-6.133,6.55-11.271,7.706m1.445,3.18c4.046-0.964,7.37-2.811,9.971-5.54,2.602-2.731,4.383-5.733,5.347-9.007,0.899-3.341,1.218-6.84,0.963-10.501-0.385-5.717-2.105-10.805-5.154-15.271-3.051-4.463-6.952-6.887-11.705-7.272-5.202-0.449-9.151,1.604-11.849,6.164-2.248,3.726-3.245,8.64-2.987,14.742,0.194,5.78,1.508,11.237,3.95,16.376,2.375,5.266,5.523,8.829,9.441,10.693,0.771,0.385,1.445,0.256,2.023-0.384"/><path id="path3150" stroke-linejoin="miter" d="m0,0c-2.954-1.799-5.395-4.929-7.32-9.393-1.928-4.463-2.988-9.199-3.18-14.208-0.192-5.396,0.642-9.668,2.505-12.816,1.927-3.339,4.816-4.849,8.67-4.527,3.531,0.256,6.582,2.279,9.152,6.069,2.632,3.663,4.109,8.061,4.431,13.2,0.385,5.329-0.611,9.986-2.987,13.969-2.376,3.981-6.133,6.55-11.271,7.706zm1.445,3.18c4.046-0.964,7.37-2.811,9.971-5.54,2.602-2.731,4.383-5.733,5.347-9.007,0.899-3.341,1.218-6.84,0.963-10.501-0.385-5.717-2.105-10.805-5.154-15.271-3.051-4.463-6.952-6.887-11.705-7.272-5.202-0.449-9.151,1.604-11.849,6.164-2.248,3.726-3.245,8.64-2.987,14.742,0.194,5.78,1.508,11.237,3.95,16.376,2.375,5.266,5.523,8.829,9.441,10.693,0.771,0.385,1.445,0.256,2.023-0.384z" stroke="#231f20" stroke-linecap="butt" stroke-miterlimit="10" stroke-dasharray="none" stroke-width="1" fill="none"/><g id="g3152" transform="translate(-228.6944,14.1841)"><path id="path3154" stroke-linejoin="miter" d="M0,0,2.942-7.606,5.14-9.182" stroke="#231f20" stroke-linecap="round" stroke-miterlimit="10" stroke-dasharray="none" stroke-width="0.5" fill="none"/><g id="g3156" transform="translate(-3.9746,0)"><path id="path3158" stroke-linejoin="miter" d="M0,0-1.919-12.724" stroke="#231f20" stroke-linecap="round" stroke-miterlimit="10" stroke-dasharray="none" stroke-width="0.5" fill="none"/><g id="g3160" transform="translate(11.3081,11.2402)"><path id="path3162" stroke-linejoin="miter" d="m0,0,4.659,0.411-2.809-2.536,1.439-1.918-4.42,0" fill-rule="nonzero" stroke="#231f20" stroke-linecap="butt" stroke-miterlimit="10" stroke-dasharray="none" stroke-width="0.5" fill="#f18f12"/><g id="g3164" transform="translate(-18.1435,-2.6084)"><path id="path3166" fill-rule="nonzero" fill="#f6a925" d="m0,0c0-5.44,4.41-9.851,9.851-9.851s9.851,4.411,9.851,9.851c0,5.441-4.41,9.853-9.851,9.853s-9.851-4.412-9.851-9.853"/><path id="path3168" stroke-linejoin="miter" d="m0,0c0-5.44,4.41-9.851,9.851-9.851s9.851,4.411,9.851,9.851c0,5.441-4.41,9.853-9.851,9.853s-9.851-4.412-9.851-9.853z" stroke="#231f20" stroke-linecap="butt" stroke-miterlimit="10" stroke-dasharray="none" stroke-width="0.5" fill="none"/><g id="g3170" transform="translate(11.2905,4.0816)"><path id="path3172" fill-rule="nonzero" fill="#231f20" d="m0,0c0-0.397,0.321-0.719,0.719-0.719,0.397,0,0.72,0.322,0.72,0.719,0,0.398-0.323,0.719-0.72,0.719-0.398,0-0.719-0.321-0.719-0.719"/><g id="g3174" transform="translate(-1.4394,4.2139)"><path id="path3176" stroke-linejoin="miter" d="M0,0,0,3.304" stroke="#231f20" stroke-linecap="butt" stroke-miterlimit="10" stroke-dasharray="none" stroke-width="0.5" fill="none"/><g id="g3178" transform="translate(-1.4737,0)"><path id="path3180" stroke-linejoin="miter" d="M0,0s0.377,2.838-0.857,3.304" stroke="#231f20" stroke-linecap="butt" stroke-miterlimit="10" stroke-dasharray="none" stroke-width="0.5" fill="none"/><g id="g3182" transform="translate(-1.1997,0)"><path id="path3184" stroke-linejoin="miter" d="M0,0s-0.068,2.399-1.919,2.537" stroke="#231f20" stroke-linecap="butt" stroke-miterlimit="10" stroke-dasharray="none" stroke-width="0.5" fill="none"/><g id="g3186" transform="translate(10.9658,-25.0137)"><path id="path3188" stroke-linejoin="round" d="m0,0-4.392,0.48,0-2.672" stroke="#231f20" stroke-linecap="round" stroke-miterlimit="10" stroke-dasharray="none" stroke-width="0.5" fill="none"/><g id="g3190" transform="translate(-8.5048,-0.6367)"><path id="path3192" stroke-linejoin="round" d="m0,0-3.887,1.028,2.224-2.925" stroke="#231f20" stroke-linecap="round" stroke-miterlimit="10" stroke-dasharray="none" stroke-width="0.5" fill="none"/><g id="g3194" transform="translate(202.2456,-38.1978)"><path id="path3196" stroke-linejoin="round" d="m0,0s-10.394-6.896-8.124-14.955c0,0,0.015,17.127-12.762,23.293" stroke="#2f662d" stroke-linecap="round" stroke-miterlimit="10" stroke-dasharray="none" stroke-width="1" fill="none"/><g id="g3198" transform="translate(-8.1241,-14.9551)"><path id="path3200" stroke-linejoin="round" d="M0,0s-1.391,5.836-11.134,10.537" stroke="#2f662d" stroke-linecap="round" stroke-miterlimit="10" stroke-dasharray="none" stroke-width="1" fill="none"/><g id="g3202" transform="translate(38.6846,15.0411)"><path id="path3204" stroke-linejoin="round" d="m0,0s13.238-6.072,12.079-15.779c0,0-3.116,19.753,10.506,29.18" stroke="#2f662d" stroke-linecap="round" stroke-miterlimit="10" stroke-dasharray="none" stroke-width="1" fill="none"/><g id="g3206" transform="translate(12.0791,-15.7793)"><path id="path3208" stroke-linejoin="round" d="M0,0s0.55,6.984,10.934,14.17" stroke="#2f662d" stroke-linecap="round" stroke-miterlimit="10" stroke-dasharray="none" stroke-width="1" fill="none"/><g id="g3210" transform="translate(-49.5723,6.1191)"><path id="path3212" stroke-linejoin="round" d="m0,0s5.4-2.965,4.148-6.541c0,0,0.125,7.562,6.878,10.385" stroke="#2f662d" stroke-linecap="round" stroke-miterlimit="10" stroke-dasharray="none" stroke-width="1" fill="none"/><g id="g3214" transform="translate(4.1485,-6.541)"><path id="path3216" stroke-linejoin="round" d="M0,0s0.774,2.588,5.925,4.738" stroke="#2f662d" stroke-linecap="round" stroke-miterlimit="10" stroke-dasharray="none" stroke-width="1" fill="none"/><g id="g3218" transform="translate(42.6855,5.1504)"><path id="path3220" stroke-linejoin="round" d="m0,0s-6.307-3.461-4.844-7.639c0,0-0.145,8.832-8.03,12.129" stroke="#2f662d" stroke-linecap="round" stroke-miterlimit="10" stroke-dasharray="none" stroke-width="1" fill="none"/><g id="g3222" transform="translate(-4.8437,-7.6387)"><path id="path3224" stroke-linejoin="round" d="M0,0s-0.905,3.023-6.918,5.535" stroke="#2f662d" stroke-linecap="round" stroke-miterlimit="10" stroke-dasharray="none" stroke-width="1" fill="none"/><g id="g3226" transform="translate(-205.4497,51.6958)"><path id="path3228" stroke-linejoin="miter" d="m0,0c10.048,2.721,29.939,12.969,29.939,25.622,0,12.654-10.226,16.755-15.391,7.502-5.967-10.691,5.022-18.765,14.567-18.053,6.663,0.496,13.457,2.349,19.02,5.901,3.122,1.993,5.857,4.522,7.962,7.646" stroke-dashoffset="0" stroke="#231f20" stroke-linecap="butt" stroke-miterlimit="10" stroke-dasharray="3" stroke-width="1" fill="none"/><g id="g3230" transform="translate(59.812,37.4722)"><path id="path3232" fill-rule="nonzero" fill="#FFF" d="m0,0c0.878-2.702-1.251-3.167-3.382-3.859s-5.2,2.221-6.078,4.922c-0.877,2.701,0.961,4.606,3.092,5.298,2.132,0.692,5.491-3.66,6.368-6.361"/><path id="path3234" stroke-linejoin="miter" d="m0,0c0.878-2.702-1.251-3.167-3.382-3.859s-5.2,2.221-6.078,4.922c-0.877,2.701,0.961,4.606,3.092,5.298,2.132,0.692,5.491-3.66,6.368-6.361z" stroke="#231f20" stroke-linecap="butt" stroke-miterlimit="10" stroke-dasharray="none" stroke-width="0.5" fill="none"/><g id="g3236" transform="translate(-3.6826,0.3032)"><path id="path3238" fill-rule="nonzero" fill="#FFF" d="M0,0c0.878-2.701,2.874-1.826,5.004-1.134,2.132,0.693,2.902,4.852,2.024,7.553-0.877,2.702-3.483,3.163-5.615,2.47-2.13-0.692-2.29-6.188-1.413-8.889"/><path id="path3240" stroke-linejoin="miter" d="M0,0c0.878-2.701,2.874-1.826,5.004-1.134,2.132,0.693,2.902,4.852,2.024,7.553-0.877,2.702-3.483,3.163-5.615,2.47-2.13-0.692-2.29-6.188-1.413-8.889z" stroke="#231f20" stroke-linecap="butt" stroke-miterlimit="10" stroke-dasharray="none" stroke-width="0.5" fill="none"/><g id="g3242" transform="translate(13.5088,-1.4375)"><path id="path3244" fill-rule="nonzero" fill="#eeee15" d="m0,0c0.905-2.788-2.785-7.568-7.186-8.998-4.399-1.429-8.7-0.328-9.606,2.461-0.905,2.788,1.927,6.206,6.327,7.636,4.4,1.429,9.559,1.689,10.465-1.099"/><path id="path3246" stroke-linejoin="miter" d="m0,0c0.905-2.788-2.785-7.568-7.186-8.998-4.399-1.429-8.7-0.328-9.606,2.461-0.905,2.788,1.927,6.206,6.327,7.636,4.4,1.429,9.559,1.689,10.465-1.099z" stroke="#231f20" stroke-linecap="butt" stroke-miterlimit="10" stroke-dasharray="none" stroke-width="0.5" fill="none"/><g id="g3248" transform="translate(-2.6377,-0.7861)"><path id="path3250" fill-rule="nonzero" fill="#231f20" d="m0,0c0.093-0.285-0.081-0.597-0.387-0.697-0.307-0.099-0.631,0.051-0.723,0.336-0.093,0.285,0.081,0.597,0.388,0.697,0.306,0.099,0.629-0.051,0.722-0.336"/></g></g></g></g></g></g></g></g></g></g></g></g></g></g></g></g></g></g></g></g></g></g></g></g></g></g></g></g></g></g></g></g></g></g></g></g></g></g></g></g></g></g></g></g><g id="g3252"><g id="g3254" clip-path="url(#clipPath3256)"><g id="g3260" transform="translate(361.6025,258.709)"><path id="path3262" stroke-linejoin="miter" d="M0,0s0.462-3.269,3.563-3.543" stroke="#231f20" stroke-linecap="round" stroke-miterlimit="10" stroke-dasharray="none" stroke-width="0.5" fill="none"/></g></g></g><g id="g3264"><path id="path3266" fill-rule="nonzero" fill="#231f20" d="m326.88,147.93c0,1.5867-0.54133,2.912-1.624,3.976-0.392,0.392-0.90533,0.77933-1.54,1.162s-1.3907,0.77-2.268,1.162c-1.4,0.63467-2.3333,1.1387-2.8,1.512-0.82133,0.70933-1.232,1.54-1.232,2.492,0,1.064,0.392,1.9227,1.176,2.576,0.728,0.616,1.6427,0.924,2.744,0.924,1.0453,0,1.8947-0.20533,2.548-0.616,0.52267-0.29867,0.97067-0.756,1.344-1.372l1.092,0.476c-0.97067,1.7547-2.632,2.632-4.984,2.632-1.4187,0-2.6133-0.42933-3.584-1.288-0.98933-0.84-1.484-1.9507-1.484-3.332s0.48533-2.492,1.456-3.332c0.57867-0.52267,1.6613-1.1387,3.248-1.848,0.84-0.37333,1.5307-0.70933,2.072-1.008,0.54133-0.29867,0.94267-0.56933,1.204-0.812,0.98933-0.87733,1.484-1.9787,1.484-3.304,0-1.4-0.42-2.464-1.26-3.192-0.82133-0.70933-1.9507-1.064-3.388-1.064-2.52,0-4.1067,1.1947-4.76,3.584l-1.148-0.392c0.87733-2.8933,2.8467-4.34,5.908-4.34,0.98933,0,1.848,0.13067,2.576,0.392,2.1467,0.80267,3.22,2.4733,3.22,5.012z"/><path id="path3268" fill-rule="nonzero" fill="#231f20" d="m339.9,157.79c0,1.512-0.52267,2.716-1.568,3.612s-2.3333,1.344-3.864,1.344h-4.872v-19.992h1.12v9.996h3.752c1.5307,0,2.8187,0.46667,3.864,1.4,1.0453,0.896,1.568,2.1093,1.568,3.64zm-1.148,0c0-1.2133-0.41067-2.1747-1.232-2.884-0.82133-0.672-1.848-1.008-3.08-1.008h-3.724v7.7h3.724c1.2507,0,2.2587-0.31733,3.024-0.952,0.85867-0.69067,1.288-1.6427,1.288-2.856z"/><path id="path3270" fill-rule="nonzero" fill="#231f20" d="m353.06,142.75,0,1.148-8.456,0,0,9.184,8.456,0,0,1.232-8.456,0,0,7.28,8.456,0,0,1.148-9.604,0,0-19.992,9.604,0z"/><path id="path3272" fill-rule="nonzero" fill="#231f20" d="m365.89,142.75,0,1.148-8.456,0,0,9.184,8.456,0,0,1.232-8.456,0,0,7.28,8.456,0,0,1.148-9.604,0,0-19.992,9.604,0z"/><path id="path3274" fill-rule="nonzero" fill="#231f20" d="m386.07,144.91,0,1.316c-1.0827-0.784-1.9787-1.3533-2.688-1.708-1.232-0.59733-2.6787-0.896-4.34-0.896-2.6693,0-4.8627,0.85867-6.58,2.576-1.6987,1.6987-2.548,3.8827-2.548,6.552s0.85867,4.8627,2.576,6.58,3.9013,2.576,6.552,2.576c1.5493,0,3.0333-0.28933,4.452-0.868,0.93333-0.392,1.792-0.91467,2.576-1.568v1.428c-0.76533,0.59733-1.5587,1.0547-2.38,1.372-1.3813,0.504-2.9307,0.756-4.648,0.756-3.024,0-5.4973-0.96133-7.42-2.884-1.904-1.904-2.856-4.368-2.856-7.392s0.96133-5.4973,2.884-7.42c1.904-1.904,4.368-2.856,7.392-2.856,0.26133,0,0.51333,0.005,0.756,0.014s0.46667,0.0233,0.672,0.042c1.792,0.168,3.2107,0.63467,4.256,1.4l1.344,0.98z"/><path id="path3276" fill-rule="nonzero" fill="#231f20" d="m401.84,142.75,0,19.992-1.148,0,0-8.428-11.004,0,0,8.428-1.12,0,0-19.992,1.12,0,0,10.416,11.004,0,0-10.416,1.148,0z"/><path id="path3278" fill-rule="nonzero" fill="#231f20" d="m423.73,161.6,0,1.148-9.996,0,0-1.148,4.424,0,0-18.844,1.148,0,0,18.844,4.424,0z"/><path id="path3280" fill-rule="nonzero" fill="#231f20" d="m439.5,142.75,0,19.992-1.148,0,0-8.428-11.004,0,0,8.428-1.12,0,0-19.992,1.12,0,0,10.416,11.004,0,0-10.416,1.148,0z"/><path id="path3282" fill-rule="nonzero" fill="#231f20" d="m452.41,142.75,0,1.148-8.456,0,0,9.184,8.456,0,0,1.232-8.456,0,0,7.28,8.456,0,0,1.148-9.604,0,0-19.992,9.604,0z"/><path id="path3284" fill-rule="nonzero" fill="#231f20" d="m466.6,142.75-6.412,9.996c0.80267,0,1.54,0.098,2.212,0.294s1.2553,0.49933,1.75,0.91c0.49467,0.41067,0.87733,0.93333,1.148,1.568s0.406,1.3907,0.406,2.268c0,0.80267-0.14467,1.512-0.434,2.128s-0.67667,1.134-1.162,1.554-1.064,0.73733-1.736,0.952-1.3813,0.322-2.128,0.322h-4.62v-19.992h1.12v9.996h2.156l6.356-9.996h1.344zm-2.072,15.064c0-1.2693-0.36867-2.24-1.106-2.912s-1.7033-1.008-2.898-1.008h-3.78v7.7h3.472c0.59733,0,1.1573-0.0793,1.68-0.238,0.52267-0.15867,0.98-0.392,1.372-0.7s0.7-0.7,0.924-1.176,0.336-1.0313,0.336-1.666z"/><path id="path3286" fill-rule="nonzero" fill="#231f20" d="m484.75,142.75-8.008,20.636-7.98-20.636,1.12,0,2.324,5.992,9.1,0,2.296-5.992,1.148,0zm-3.92,7.14-8.176,0,4.088,10.584,4.088-10.584z"/><path id="path3288" fill-rule="nonzero" fill="#231f20" d="m497.6,157.79c0,1.512-0.52267,2.716-1.568,3.612s-2.3333,1.344-3.864,1.344h-4.872v-19.992h1.12v9.996h3.752c1.5307,0,2.8187,0.46667,3.864,1.4,1.0453,0.896,1.568,2.1093,1.568,3.64zm-1.148,0c0-1.2133-0.41067-2.1747-1.232-2.884-0.82133-0.672-1.848-1.008-3.08-1.008h-3.724v7.7h3.724c1.2507,0,2.2587-0.31733,3.024-0.952,0.85867-0.69067,1.288-1.6427,1.288-2.856z"/><path id="path3290" fill-rule="nonzero" fill="#231f20" d="m511.46,162.75-1.316,0-4.984-8.652-4.928,8.652-1.316,0,5.684-9.996,0-9.996,1.148,0,0,9.996,5.712,9.996z"/><g id="g3292"><g id="g3294" clip-path="url(#clipPath3296)"><g id="g3300" transform="translate(272.397,224.3989)"><path id="path3302" fill-rule="nonzero" fill="#231f20" d="m0,0c-2.827,2.248-6.007,2.119-9.537-0.385-3.468-2.505-6.615-6.616-9.442-12.331-2.761-5.652-4.334-11.047-4.72-16.183-0.385-5.268,0.641-8.768,3.083-10.503,2.182-1.605,4.335-1.541,6.455,0.194,2.119,1.734,4.205,4.913,6.262,9.538,1.475,3.338,3.048,7.577,4.72,12.715,1.734,5.395,2.697,8.252,2.89,8.575,0,0,1.572,3.819,2.601,3.757,0.578-0.065,1.027-0.386,1.348-0.964,0.128-0.129,0.194-0.322,0.194-0.578,0.063-0.13,0.111-0.337,0.143-0.626s0.049-0.884,0.049-1.782c0.063-2.635,0.159-5.043,0.289-7.225,0.062-1.221,0.128-2.987,0.192-5.298,0.128-2.57,0.256-4.529,0.386-5.877,0.448-6.551,1.06-11.724,1.83-15.513,0.064-0.449-0.033-0.865-0.289-1.25-0.258-0.387-0.626-0.627-1.107-0.722-0.482-0.098-0.916-0.016-1.301,0.24-0.386,0.258-0.644,0.642-0.771,1.156-0.708,3.854-1.317,9.153-1.831,15.896l-0.288,5.877c-0.13,2.504-0.226,4.27-0.29,5.298v0.193l-0.674-2.215c-1.734-5.331-3.371-9.699-4.913-13.103-2.312-5.075-4.72-8.639-7.225-10.694-3.468-2.953-7.066-3.115-10.789-0.481-3.406,2.504-4.882,7.032-4.432,13.584,0.448,5.651,2.151,11.496,5.106,17.532,3.082,6.166,6.614,10.694,10.597,13.583,4.88,3.531,9.407,3.629,13.583,0.29,0.386-0.323,0.61-2.023,0.289-2.408-0.322-0.387-0.708-0.612-1.156-0.675-0.45-0.064-0.867,0.063-1.252,0.385"/><path id="path3304" stroke-linejoin="miter" d="m0,0c-2.827,2.248-6.007,2.119-9.537-0.385-3.468-2.505-6.615-6.616-9.442-12.331-2.761-5.652-4.334-11.047-4.72-16.183-0.385-5.268,0.641-8.768,3.083-10.503,2.182-1.605,4.335-1.541,6.455,0.194,2.119,1.734,4.205,4.913,6.262,9.538,1.475,3.338,3.048,7.577,4.72,12.715,1.734,5.395,2.697,8.252,2.89,8.575,0,0,1.572,3.819,2.601,3.757,0.578-0.065,1.027-0.386,1.348-0.964,0.128-0.129,0.194-0.322,0.194-0.578,0.063-0.13,0.111-0.337,0.143-0.626s0.049-0.884,0.049-1.782c0.063-2.635,0.159-5.043,0.289-7.225,0.062-1.221,0.128-2.987,0.192-5.298,0.128-2.57,0.256-4.529,0.386-5.877,0.448-6.551,1.06-11.724,1.83-15.513,0.064-0.449-0.033-0.865-0.289-1.25-0.258-0.387-0.626-0.627-1.107-0.722-0.482-0.098-0.916-0.016-1.301,0.24-0.386,0.258-0.644,0.642-0.771,1.156-0.708,3.854-1.317,9.153-1.831,15.896l-0.288,5.877c-0.13,2.504-0.226,4.27-0.29,5.298v0.193l-0.674-2.215c-1.734-5.331-3.371-9.699-4.913-13.103-2.312-5.075-4.72-8.639-7.225-10.694-3.468-2.953-7.066-3.115-10.789-0.481-3.406,2.504-4.882,7.032-4.432,13.584,0.448,5.651,2.151,11.496,5.106,17.532,3.082,6.166,6.614,10.694,10.597,13.583,4.88,3.531,9.407,3.629,13.583,0.29,0.386-0.323,0.61-2.023,0.289-2.408-0.322-0.387-0.708-0.612-1.156-0.675-0.45-0.064-0.867,0.063-1.252,0.385z" stroke="#231f20" stroke-linecap="butt" stroke-miterlimit="10" stroke-dasharray="none" stroke-width="1" fill="none"/><g id="g3306" transform="translate(2.3496,3.1607)"><path id="path3308" fill-rule="nonzero" fill="#231f20" d="M0,0c0.753-0.844,1.108-1.505,1.323-2.03,1.101-2.68,1.054-3.618,0.993-5.906-0.016-0.588-0.038-1.638-0.113-2.741-0.075-1.102-6.043-2.712-6.043-2.712s0.494,1.494,0.718,2.032c0.743,1.774,2.134,5.833-0.041,8.4"/><g id="g3310" transform="translate(106.4546,-9.9751)"><path id="path3312" fill-rule="nonzero" fill="#818582" d="m0,0c-0.075-4.415,4.788-8.074,10.868-8.179,6.076-0.102,11.068,3.391,11.143,7.804,0.075,4.415-4.795,8.076-10.87,8.18-6.081,0.103-11.067-3.39-11.141-7.805"/><path id="path3314" stroke-linejoin="round" d="m0,0c-0.075-4.415,4.788-8.074,10.868-8.179,6.076-0.102,11.068,3.391,11.143,7.804,0.075,4.415-4.795,8.076-10.87,8.18-6.081,0.103-11.067-3.39-11.141-7.805z" stroke="#231f20" stroke-linecap="round" stroke-miterlimit="10" stroke-dasharray="none" stroke-width="0.5" fill="none"/><g id="g3316" transform="translate(13.5439,-2.9112)"><path id="path3318" fill-rule="nonzero" fill="#231f20" d="M0,0c-0.01-0.501,0.368-0.917,0.845-0.925,0.474-0.008,0.869,0.394,0.877,0.896,0.007,0.503-0.371,0.915-0.847,0.925-0.475,0.006-0.867-0.392-0.875-0.896"/><g id="g3320" transform="translate(-8.4189,1.4356)"><path id="path3322" fill-rule="nonzero" fill="#231f20" d="M0,0c-0.008-0.503,0.371-0.915,0.845-0.923,0.477-0.009,0.869,0.392,0.878,0.893,0.008,0.504-0.371,0.916-0.846,0.926-0.477,0.008-0.868-0.394-0.877-0.896"/><g id="g3324" transform="translate(5.6025,-3.6875)"><path id="path3326" stroke-linejoin="miter" d="M0,0s-2.586-0.192-2.655,1.436" stroke="#231f20" stroke-linecap="round" stroke-miterlimit="10" stroke-dasharray="none" stroke-width="0.5" fill="none"/><g id="g3328" transform="translate(17.0537,0.206)"><path id="path3330" fill-rule="nonzero" fill="#f4f4f4" d="m0,0c-0.777-1.198-3.331-0.922-5.702,0.617-2.374,1.54-3.669,3.757-2.892,4.955,0.779,1.199,3.33,0.922,5.702-0.617,2.373-1.54,3.669-3.759,2.892-4.955"/><path id="path3332" stroke-linejoin="round" d="m0,0c-0.777-1.198-3.331-0.922-5.702,0.617-2.374,1.54-3.669,3.757-2.892,4.955,0.779,1.199,3.33,0.922,5.702-0.617,2.373-1.54,3.669-3.759,2.892-4.955z" stroke="#231f20" stroke-linecap="round" stroke-miterlimit="10" stroke-dasharray="none" stroke-width="0.5" fill="none"/><g id="g3334" transform="translate(-24.2763,9.9014)"><path id="path3336" fill-rule="nonzero" fill="#f4f4f4" d="m0,0c0.156-1.422-1.997-2.818-4.811-3.123-2.81-0.31-5.213,0.592-5.373,2.013-0.149,1.419,2.005,2.818,4.814,3.124,2.811,0.306,5.217-0.596,5.37-2.014"/><path id="path3338" stroke-linejoin="round" d="m0,0c0.156-1.422-1.997-2.818-4.811-3.123-2.81-0.31-5.213,0.592-5.373,2.013-0.149,1.419,2.005,2.818,4.814,3.124,2.811,0.306,5.217-0.596,5.37-2.014z" stroke="#231f20" stroke-linecap="round" stroke-miterlimit="10" stroke-dasharray="none" stroke-width="0.5" fill="none"/><g id="g3340" transform="translate(-0.4288,3.2305)"><path id="path3342" fill-rule="nonzero" fill="#f4f4f4" d="m0,0c-0.364,8.389,5.937,3.833,7.399,2.67,3.966,6.212,4.879-1.157,4.879-1.157,7.235,3.133,4.465-2.949,4.465-2.949,6.705-7.542-3.758-6.212-3.758-6.212-3.073-6.224-7.625,1.811-7.625,1.811-10.554-1.255-5.36,5.837-5.36,5.837"/><path id="path3344" stroke-linejoin="round" d="m0,0c-0.364,8.389,5.937,3.833,7.399,2.67,3.966,6.212,4.879-1.157,4.879-1.157,7.235,3.133,4.465-2.949,4.465-2.949,6.705-7.542-3.758-6.212-3.758-6.212-3.073-6.224-7.625,1.811-7.625,1.811-10.554-1.255-5.36,5.837-5.36,5.837z" stroke="#231f20" stroke-linecap="round" stroke-miterlimit="10" stroke-dasharray="none" stroke-width="0.5" fill="none"/><g id="g3346" transform="translate(-223.5273,-22.9214)"><path id="path3348" fill-rule="nonzero" fill="#231f20" d="M0,0c0-0.722-0.224-1.308-0.5-1.308s-0.5,0.586-0.5,1.308c0,0.723,0.224,1.309,0.5,1.309s0.5-0.586,0.5-1.309"/><g id="g3350" transform="translate(2.5625,0)"><path id="path3352" fill-rule="nonzero" fill="#231f20" d="M0,0c0-0.722-0.224-1.308-0.5-1.308s-0.5,0.586-0.5,1.308c0,0.723,0.224,1.309,0.5,1.309s0.5-0.586,0.5-1.309"/><g id="g3354" transform="translate(7.375,-23.4043)"><path id="path3356" fill-rule="nonzero" fill="#231f20" d="m0,0c0-0.503-0.48-0.91-1.072-0.91-0.593,0-1.073,0.407-1.073,0.91,0,0.502,0.48,0.909,1.073,0.909,0.592,0,1.072-0.407,1.072-0.909"/><g id="g3358" transform="translate(4.6025,-1.4277)"><path id="path3360" fill-rule="nonzero" fill="#231f20" d="m0,0c0-0.503-0.48-0.91-1.072-0.91-0.593,0-1.073,0.407-1.073,0.91,0,0.502,0.48,0.909,1.073,0.909,0.592,0,1.072-0.407,1.072-0.909"/><g id="g3362" transform="translate(17.5987,0.9101)"><path id="path3364" fill-rule="nonzero" fill="#231f20" d="m0,0c0-0.503-0.48-0.91-1.072-0.91-0.593,0-1.073,0.407-1.073,0.91,0,0.502,0.48,0.909,1.073,0.909,0.592,0,1.072-0.407,1.072-0.909"/><g id="g3366" transform="translate(8.7241,0.5176)"><path id="path3368" fill-rule="nonzero" fill="#231f20" d="m0,0c0-0.503-0.48-0.91-1.072-0.91-0.593,0-1.073,0.407-1.073,0.91,0,0.502,0.48,0.909,1.073,0.909,0.592,0,1.072-0.407,1.072-0.909"/><g id="g3370" transform="translate(59.7622,67.8935)"><path id="path3372" stroke-linejoin="round" d="m0,0,1.349-5.19,1.596,3.337,2.18-2.86,0.198,5.416" stroke="#231f20" stroke-linecap="round" stroke-miterlimit="10" stroke-dasharray="none" stroke-width="0.5" fill="none"/><g id="g3374" transform="translate(84.1396,-66.7246)"><path id="path3376" fill-rule="nonzero" fill="#818582" d="m0,0c0-1.07-0.867-1.938-1.938-1.938-1.07,0-1.937,0.868-1.937,1.938s0.867,1.938,1.937,1.938c1.071,0,1.938-0.868,1.938-1.938"/><path id="path3378" stroke-linejoin="round" d="m0,0c0-1.07-0.867-1.938-1.938-1.938-1.07,0-1.937,0.868-1.937,1.938s0.867,1.938,1.937,1.938c1.071,0,1.938-0.868,1.938-1.938z" stroke="#231f20" stroke-linecap="round" stroke-miterlimit="10" stroke-dasharray="none" stroke-width="0.5" fill="none"/><g id="g3380" transform="translate(6.4805,-3.1074)"><path id="path3382" fill-rule="nonzero" fill="#818582" d="m0,0c0-1.07-0.867-1.938-1.938-1.938-1.07,0-1.937,0.868-1.937,1.938s0.867,1.938,1.937,1.938c1.071,0,1.938-0.868,1.938-1.938"/><path id="path3384" stroke-linejoin="round" d="m0,0c0-1.07-0.867-1.938-1.938-1.938-1.07,0-1.937,0.868-1.937,1.938s0.867,1.938,1.937,1.938c1.071,0,1.938-0.868,1.938-1.938z" stroke="#231f20" stroke-linecap="round" stroke-miterlimit="10" stroke-dasharray="none" stroke-width="0.5" fill="none"/><g id="g3386" transform="translate(24.833,1.4434)"><path id="path3388" fill-rule="nonzero" fill="#818582" d="m0,0c0-1.07-0.867-1.938-1.938-1.938-1.07,0-1.937,0.868-1.937,1.938s0.867,1.938,1.937,1.938c1.071,0,1.938-0.868,1.938-1.938"/><path id="path3390" stroke-linejoin="round" d="m0,0c0-1.07-0.867-1.938-1.938-1.938-1.07,0-1.937,0.868-1.937,1.938s0.867,1.938,1.937,1.938c1.071,0,1.938-0.868,1.938-1.938z" stroke="#231f20" stroke-linecap="round" stroke-miterlimit="10" stroke-dasharray="none" stroke-width="0.5" fill="none"/><g id="g3392" transform="translate(11.7022,0)"><path id="path3394" fill-rule="nonzero" fill="#818582" d="m0,0c0-1.07-0.867-1.938-1.938-1.938-1.07,0-1.937,0.868-1.937,1.938s0.867,1.938,1.937,1.938c1.071,0,1.938-0.868,1.938-1.938"/><path id="path3396" stroke-linejoin="round" d="m0,0c0-1.07-0.867-1.938-1.938-1.938-1.07,0-1.937,0.868-1.937,1.938s0.867,1.938,1.937,1.938c1.071,0,1.938-0.868,1.938-1.938z" stroke="#231f20" stroke-linecap="round" stroke-miterlimit="10" stroke-dasharray="none" stroke-width="0.5" fill="none"/><g id="g3398" transform="translate(81.4297,56.2641)"><path id="path3400" stroke-linejoin="miter" d="m0,0s-1.428-6.404,4.521-6.474c0,0,6.188-0.915,4.284,8.431" fill-rule="nonzero" stroke="#231f20" stroke-linecap="butt" stroke-miterlimit="10" stroke-dasharray="none" stroke-width="0.5" fill="#f89ca5"/><g id="g3402" transform="translate(1.1992,-5.331)"><path id="path3404" stroke-linejoin="miter" d="M0,0-1.793-2.127" stroke="#231f20" stroke-linecap="butt" stroke-miterlimit="10" stroke-dasharray="none" stroke-width="0.5" fill="none"/><g id="g3406" transform="translate(1.8779,-0.9766)"><path id="path3408" stroke-linejoin="miter" d="M0,0,0-2.498" stroke="#231f20" stroke-linecap="butt" stroke-miterlimit="10" stroke-dasharray="none" stroke-width="0.5" fill="none"/><g id="g3410" transform="translate(3.2891,-0.1904)"><path id="path3412" stroke-linejoin="miter" d="M0,0,1.13-2.308" stroke="#231f20" stroke-linecap="butt" stroke-miterlimit="10" stroke-dasharray="none" stroke-width="0.5" fill="none"/><g id="g3414" transform="translate(2.4883,2.9141)"><path id="path3416" stroke-linejoin="miter" d="M0,0,1.271-1.747" stroke="#231f20" stroke-linecap="butt" stroke-miterlimit="10" stroke-dasharray="none" stroke-width="0.5" fill="none"/><g id="g3418" transform="translate(-19.4385,11.0654)"><path id="path3420" stroke-linejoin="miter" d="M0,0s-11.239-4.766-14.426-14.37" stroke="#231f20" stroke-linecap="butt" stroke-miterlimit="10" stroke-dasharray="none" stroke-width="0.5" fill="none"/><g id="g3422" transform="translate(3.0381,-4.2207)"><path id="path3424" stroke-linejoin="miter" d="M0,0s-7.979-3.873-11.794-13.244" stroke="#231f20" stroke-linecap="butt" stroke-miterlimit="10" stroke-dasharray="none" stroke-width="0.5" fill="none"/><g id="g3426" transform="translate(16.7148,-0.2354)"><path id="path3428" stroke-linejoin="miter" d="M0,0s5.964-1.136,9.925-12.102" stroke="#231f20" stroke-linecap="butt" stroke-miterlimit="10" stroke-dasharray="none" stroke-width="0.5" fill="none"/><g id="g3430" transform="translate(5.1182,5.1651)"><path id="path3432" stroke-linejoin="miter" d="M0,0s10.554-6.115,9.501-14.804" stroke="#231f20" stroke-linecap="butt" stroke-miterlimit="10" stroke-dasharray="none" stroke-width="0.5" fill="none"/><g id="g3434" transform="translate(11.2968,-14.8042)"><path id="path3436" fill-rule="nonzero" fill="#231f20" d="m0,0c0-0.951-0.771-1.721-1.722-1.721-0.95,0-1.721,0.77-1.721,1.721s0.771,1.722,1.721,1.722c0.951,0,1.722-0.771,1.722-1.722"/><g id="g3438" transform="translate(-9.164,18.4194)"><path id="path3440" fill-rule="nonzero" fill="#e6e5cf" d="m0,0c0-7.147-8.017-12.942-17.907-12.942s-17.907,5.795-17.907,12.942c0,7.149,8.017,12.943,17.907,12.943s17.907-5.794,17.907-12.943"/><path id="path3442" stroke-linejoin="miter" d="m0,0c0-7.147-8.017-12.942-17.907-12.942s-17.907,5.795-17.907,12.942c0,7.149,8.017,12.943,17.907,12.943s17.907-5.794,17.907-12.943z" stroke="#231f20" stroke-linecap="butt" stroke-miterlimit="10" stroke-dasharray="none" stroke-width="0.5" fill="none"/><g id="g3444" transform="translate(-37.0156,22.8696)"><path id="path3446" fill-rule="nonzero" fill="#231f20" d="m0,0s4.728,2.207,4.685-2.347c0,0,0.288-3.057-4.809-2.507"/><g id="g3448" transform="translate(-16.8213,5.1026)"><path id="path3450" fill-rule="nonzero" fill="#231f20" d="m0,0s-4.466,2.699-0.657,5.198c0,0,2.379,1.941,4.759-2.598"/><g id="g3452" transform="translate(17.292,-7.2954)"><path id="path3454" fill-rule="nonzero" fill="#e6e5cf" d="m0,0c0-5.914-4.47-10.709-9.984-10.709-5.516,0-9.988,4.795-9.988,10.709s4.472,10.709,9.988,10.709c5.514,0,9.984-4.795,9.984-10.709"/><path id="path3456" stroke-linejoin="miter" d="m0,0c0-5.914-4.47-10.709-9.984-10.709-5.516,0-9.988,4.795-9.988,10.709s4.472,10.709,9.988,10.709c5.514,0,9.984-4.795,9.984-10.709z" stroke="#231f20" stroke-linecap="butt" stroke-miterlimit="10" stroke-dasharray="none" stroke-width="0.5" fill="none"/><g id="g3458" transform="translate(33.9277,-13.9366)"><path id="path3460" stroke-linejoin="miter" d="M0,0s5.712,3.822,9.281,2.396" stroke="#231f20" stroke-linecap="butt" stroke-miterlimit="10" stroke-dasharray="none" stroke-width="0.5" fill="none"/><g id="g3462" transform="translate(-30.7295,-0.186)"><path id="path3464" stroke-linejoin="miter" d="M0,0s-1.343,4.74-5.27,7.596" stroke="#231f20" stroke-linecap="butt" stroke-miterlimit="10" stroke-dasharray="none" stroke-width="0.5" fill="none"/><g id="g3466" transform="translate(-6.4277,6.2363)"><path id="path3468" fill-rule="nonzero" fill="#f89ca5" d="m0,0c-1.777-1.753-4.149-2.823-6.755-2.823-5.516,0-9.987,4.795-9.987,10.709,0,3.041,5.23,2.974,9.985,0.714,3.37-1.601,7.035-4.73,8.12-6.391,0.363-0.552-0.941-1.793-1.363-2.209"/><path id="path3470" stroke-linejoin="miter" d="m0,0c-1.777-1.753-4.149-2.823-6.755-2.823-5.516,0-9.987,4.795-9.987,10.709,0,3.041,5.23,2.974,9.985,0.714,3.37-1.601,7.035-4.73,8.12-6.391,0.363-0.552-0.941-1.793-1.363-2.209z" stroke="#231f20" stroke-linecap="butt" stroke-miterlimit="10" stroke-dasharray="none" stroke-width="0.5" fill="none"/><g id="g3472" transform="translate(-7.7588,13.2105)"><path id="path3474" fill-rule="nonzero" fill="#231f20" d="m0,0c0-0.608-0.492-1.101-1.101-1.101s-1.101,0.493-1.101,1.101,0.492,1.102,1.101,1.102,1.101-0.494,1.101-1.102"/><g id="g3476" transform="translate(7.749,-4.4448)"><path id="path3478" fill-rule="nonzero" fill="#231f20" d="m0,0c0-0.609-0.492-1.102-1.102-1.102-0.607,0-1.1,0.493-1.1,1.102,0,0.608,0.493,1.101,1.1,1.101,0.61,0,1.102-0.493,1.102-1.101"/><g id="g3480" transform="translate(50.3857,-11.5884)"><path id="path3482" fill-rule="nonzero" fill="#231f20" d="m0,0c0-0.745-1.981,0.599-2.7,0.195-0.469-0.265-0.735-1.469-1.766-1.656-1.031-0.188-1.906,0.238-1.906,1.468,0,1.232,1.94,2.222,3.518,2.222,1.577,0,2.854-0.998,2.854-2.229"/><g id="g3484" transform="translate(-60.6806,7.1748)"><path id="path3486" fill-rule="nonzero" fill="#231f20" d="m0,0c-0.514-1.243-1.316-2.092-1.791-1.896-0.477,0.197-0.445,1.365,0.069,2.607,0.514,1.245,1.317,2.095,1.792,1.898s0.444-1.365-0.07-2.609"/><g id="g3488" transform="translate(5.459,-2.4995)"><path id="path3490" fill-rule="nonzero" fill="#231f20" d="m0,0c-0.514-1.243-1.316-2.092-1.792-1.896-0.476,0.197-0.443,1.365,0.069,2.607,0.515,1.245,1.317,2.095,1.792,1.898,0.477-0.196,0.446-1.365-0.069-2.609"/><g id="g3492" transform="translate(4.8359,-32.628)"><path id="path3494" fill-rule="nonzero" fill="#231f20" d="m0,0c0-0.951-0.771-1.721-1.722-1.721-0.95,0-1.721,0.77-1.721,1.721s0.771,1.722,1.721,1.722c0.951,0,1.722-0.771,1.722-1.722"/><g id="g3496" transform="translate(5.7461,-3.8046)"><path id="path3498" fill-rule="nonzero" fill="#231f20" d="m0,0c0-0.951-0.771-1.721-1.722-1.721-0.95,0-1.721,0.77-1.721,1.721s0.771,1.722,1.721,1.722c0.951,0,1.722-0.771,1.722-1.722"/><g id="g3500" transform="translate(38.4336,0.2099)"><path id="path3502" fill-rule="nonzero" fill="#231f20" d="m0,0c0-0.951-0.771-1.721-1.722-1.721-0.95,0-1.721,0.77-1.721,1.721s0.771,1.722,1.721,1.722c0.951,0,1.722-0.771,1.722-1.722"/></g></g></g></g></g></g></g></g></g></g></g></g></g></g></g></g></g></g></g></g></g></g></g></g></g></g></g></g></g></g></g></g></g></g></g></g></g></g></g></g></g></g></g></g></g></g></g><g id="g3504"><g id="g3506" clip-path="url(#clipPath3508)"><g id="g3512" transform="translate(462.8555,230.9189)"><path id="path3514" fill-rule="nonzero" fill="#231f20" d="m0,0s2.219,14.487,8.139,9.609c0,0,6.041,3.206,8.467-6.258"/><g id="g3516" transform="translate(-13.6153,18.0733)"><path id="path3518" fill-rule="nonzero" fill="#231f20" d="m0,0s1.322-7.71,6.425-4.129c0,0,9.188-1.493,3.988,5.37,0,0,4.858,8.653-4.601,7.562"/><g id="g3520" transform="translate(26.8096,12.8945)"><path id="path3522" fill-rule="nonzero" fill="#231f20" d="m0,0s-10.495-9.566-0.741-11.076c0,0,4.816-8.581,5.912,0.071,0,0,3.666-2.234,5.173,1.05"/></g></g></g></g></g><g id="g3524"><g id="g3526" clip-path="url(#clipPath3528)"><g id="g3532" transform="translate(465.8066,249.1978)"><path id="path3534" fill-rule="nonzero" fill="#231f20" d="m0,0s4.846,4.092,6.153-1.107c0,0,3.352-5.816-4.016-2.585,0,0-1.983-2.074-2.907,0.694,0,0-4.013,1.205-1.23,2.383l2,0.615z"/><g id="g3536" transform="translate(-251.8608,-46.7398)"><path id="path3538" fill-rule="nonzero" fill="#f4c580" d="m0,0,0-0.143s-2.289-9.838,7.558-9.973c0,0,0.653,8.499-7.558,10.116"/><path id="path3540" stroke-linejoin="miter" d="m0,0,0-0.143s-2.289-9.838,7.558-9.973c0,0,0.653,8.499-7.558,10.116z" stroke="#231f20" stroke-linecap="butt" stroke-miterlimit="10" stroke-dasharray="none" stroke-width="0.5" fill="none"/></g></g></g></g><g id="g3542"><g id="g3544" clip-path="url(#clipPath3546)"><g id="g3550" transform="translate(220.4844,193.8516)"><path id="path3552" fill-rule="nonzero" fill="#f0a443" d="M0,0-3.418,0.696-2.64,4.515-5.861,5.171-5.14,8.714-4.748,8.634-5.39,5.483-2.168,4.827-2.947,1.009,0.08,0.392,0,0z"/><g id="g3554" transform="translate(-1.3394,-0.501)"><path id="path3556" fill-rule="nonzero" fill="#f0a443" d="m0,0-0.392,0.08,0.617,3.026-3.819,0.779,0.656,3.22-3.15,0.643,0.08,0.391l3.542-0.721-0.656-3.221,3.819-0.778-0.697-3.419z"/></g></g></g></g><g id="g3558"><g id="g3560" clip-path="url(#clipPath3562)"><g id="g3566" transform="translate(218.958,194.4043)"><path id="path3568" stroke-linejoin="miter" d="m0,0s-0.594,3.863,1.713,6.124c0,0,2.3-0.683,2.494-8.021" fill-rule="nonzero" stroke="#231f20" stroke-linecap="butt" stroke-miterlimit="10" stroke-dasharray="none" stroke-width="0.57999998" fill="#6dc62f"/><g id="g3570" transform="translate(-5.9692,1.7207)"><path id="path3572" fill-rule="nonzero" fill="#6dc62f" d="m0,0s2.462-6.717,10.26-3.402l0.086,0.216s-2.14,3.156-10.346,3.186"/><path id="path3574" stroke-linejoin="miter" d="m0,0s2.462-6.717,10.26-3.402l0.086,0.216s-2.14,3.156-10.346,3.186z" stroke="#231f20" stroke-linecap="butt" stroke-miterlimit="10" stroke-dasharray="none" stroke-width="0.57999998" fill="none"/><g id="g3576" transform="translate(20.5293,35.8613)"><path id="path3578" fill-rule="nonzero" fill="#f4c580" d="m0,0,0-0.143s2.289-9.839-7.558-9.974c0,0-0.653,8.499,7.558,10.117"/><path id="path3580" stroke-linejoin="miter" d="m0,0,0-0.143s2.289-9.839-7.558-9.974c0,0-0.653,8.499,7.558,10.117z" stroke="#231f20" stroke-linecap="butt" stroke-miterlimit="10" stroke-dasharray="none" stroke-width="0.5" fill="none"/></g></g></g></g></g><g id="g3582"><g id="g3584" clip-path="url(#clipPath3586)"><g id="g3590" transform="translate(226.9795,223.3794)"><path id="path3592" fill-rule="nonzero" fill="#f0a443" d="M0,0,3.418,0.696,2.64,4.515,5.861,5.171,5.14,8.714,4.748,8.634,5.39,5.484,2.168,4.828,2.947,1.009-0.08,0.392,0,0z"/><g id="g3594" transform="translate(1.3393,-0.5005)"><path id="path3596" fill-rule="nonzero" fill="#f0a443" d="M0,0,0.392,0.08-0.225,3.106,3.594,3.884,2.938,7.105,6.088,7.747,6.008,8.139,2.466,7.417,3.122,4.196-0.697,3.418,0,0z"/></g></g></g></g><g id="g3598"><g id="g3600" clip-path="url(#clipPath3602)"><g id="g3606" transform="translate(228.5059,223.9321)"><path id="path3608" stroke-linejoin="miter" d="m0,0s0.594,3.863-1.713,6.125c0,0-2.3-0.684-2.494-8.022" fill-rule="nonzero" stroke="#231f20" stroke-linecap="butt" stroke-miterlimit="10" stroke-dasharray="none" stroke-width="0.57999998" fill="#6dc62f"/><g id="g3610" transform="translate(5.9692,1.7207)"><path id="path3612" fill-rule="nonzero" fill="#6dc62f" d="m0,0s-2.462-6.717-10.26-3.402l-0.086,0.216s2.14,3.156,10.346,3.186"/><path id="path3614" stroke-linejoin="miter" d="m0,0s-2.462-6.717-10.26-3.402l-0.086,0.216s2.14,3.156,10.346,3.186z" stroke="#231f20" stroke-linecap="butt" stroke-miterlimit="10" stroke-dasharray="none" stroke-width="0.57999998" fill="none"/></g></g></g></g><g id="g3616"><g id="g3618" clip-path="url(#clipPath3620)"><g id="g3624" transform="translate(353.0166,261.4873)"><path id="path3626" fill-rule="nonzero" fill="#231f20" d="m0,0s-1.888-7.457,5.099-10.64l1.053,0.343s-6.747,2.837-5.269,10.814"/><g id="g3628" transform="translate(2.1514,1.022)"><path id="path3630" fill-rule="nonzero" fill="#231f20" d="m0,0s-1.886-7.457,5.101-10.64l1.051,0.343s-6.746,2.838-5.267,10.815"/><g id="g3632" transform="translate(2.0156,0.8872)"><path id="path3634" fill-rule="nonzero" fill="#231f20" d="m0,0s-1.886-7.457,5.101-10.64l1.051,0.343s-6.746,2.838-5.267,10.815"/></g></g></g></g></g><g id="g3636"><g id="g3638" clip-path="url(#clipPath3640)"><g id="g3644" transform="translate(226.0376,247.6162)"><path id="path3646" fill-rule="nonzero" fill="#231f20" d="m0,0c-1.094-26.717-0.964-49.227,0.385-67.531,0-0.449-0.145-0.852-0.434-1.205-0.289-0.352-0.674-0.545-1.156-0.578-0.482-0.032-0.899,0.097-1.252,0.384-0.355,0.289-0.564,0.692-0.626,1.205-1.35,18.369-1.479,41.008-0.386,67.917,0,0.449,0.177,0.834,0.531,1.157,0.351,0.32,0.77,0.481,1.251,0.481,0.482,0,0.882-0.178,1.205-0.529,0.321-0.355,0.482-0.788,0.482-1.301"/><path id="path3648" stroke-linejoin="miter" d="m0,0c-1.094-26.717-0.964-49.227,0.385-67.531,0-0.449-0.145-0.852-0.434-1.205-0.289-0.352-0.674-0.545-1.156-0.578-0.482-0.032-0.899,0.097-1.252,0.384-0.355,0.289-0.564,0.692-0.626,1.205-1.35,18.369-1.479,41.008-0.386,67.917,0,0.449,0.177,0.834,0.531,1.157,0.351,0.32,0.77,0.481,1.251,0.481,0.482,0,0.882-0.178,1.205-0.529,0.321-0.355,0.482-0.788,0.482-1.301z" stroke="#231f20" stroke-linecap="butt" stroke-miterlimit="10" stroke-dasharray="none" stroke-width="1" fill="none"/><g id="g3650" transform="translate(-116.7583,7.9121)"><path id="path3652" stroke-linejoin="round" d="M0,0-3.845-9.926" fill-rule="nonzero" stroke="#231f20" stroke-linecap="round" stroke-miterlimit="10" stroke-dasharray="none" stroke-width="0.5" fill="#e4e5b6"/><g id="g3654" transform="translate(-13.708,-10.4829)"><path id="path3656" stroke-linejoin="round" d="m0,0s-7.527,9.83-15.286,7.845-11.25-12.963-7.192-16.224,4.447,4.559,4.447,4.559-1.143-7.413,1.421-7.429c2.565-0.016,2.285,5.633,2.285,5.633s-0.433-4.547,1.861-4.598,2.048,8.025,8.754,4.496" fill-rule="nonzero" stroke="#231f20" stroke-linecap="round" stroke-miterlimit="10" stroke-dasharray="none" stroke-width="0.5" fill="#dfdeb6"/><g id="g3658" transform="translate(17.894,22.9824)"><path id="path3660" stroke-linejoin="miter" d="M0,0c3.294,1.269,3.769,3.707,3.769,3.707,0.079,5.626-3.261,1.602-3.261,1.602,1.525,6.265-0.685,7.363-0.685,7.363-3.692-0.243-1.84-7.198-1.84-7.198-0.564,1.755-1.197,2.081-1.197,2.081-4.012,2.119-1.44-3.931-1.44-3.931-6.313,3.126-1.078-3.514-1.078-3.514" fill-rule="nonzero" stroke="#231f20" stroke-linecap="butt" stroke-miterlimit="10" stroke-dasharray="none" stroke-width="0.5" fill="#c52a27"/><g id="g3662" transform="translate(-8.5034,-37.0683)"><path id="path3664" stroke-linejoin="bevel" d="M0,0s0.928-9.356,5.572-13.6" stroke="#231f20" stroke-linecap="round" stroke-miterlimit="10" stroke-dasharray="none" stroke-width="0.5" fill="none"/><g id="g3666" transform="translate(6.9619,-11.6182)"><path id="path3668" stroke-linejoin="bevel" d="m0,0-3.989,1.492-0.866-4.17" stroke="#231f20" stroke-linecap="round" stroke-miterlimit="10" stroke-dasharray="none" stroke-width="0.5" fill="none"/><g id="g3670" transform="translate(-15.0957,12.0606)"><path id="path3672" stroke-linejoin="bevel" d="M0,0s-1.25-9.778,0.301-14.197" stroke="#231f20" stroke-linecap="round" stroke-miterlimit="10" stroke-dasharray="none" stroke-width="0.5" fill="none"/><g id="g3674" transform="translate(3.0415,-13.0831)"><path id="path3676" stroke-linejoin="bevel" d="M0,0-3.38,1.868-6.087-0.344" stroke="#231f20" stroke-linecap="round" stroke-miterlimit="10" stroke-dasharray="none" stroke-width="0.5" fill="none"/><g id="g3678" transform="translate(3.3614,43.2867)"><path id="path3680" fill-rule="nonzero" fill="#dfdeb6" d="m0,0c0.251-4.452,4.028-6.191,8.552-5.936,4.525,0.256,8.097,2.152,7.845,6.604-0.251,4.453-4.103,7.514-8.627,7.258s-8.021-3.473-7.77-7.926"/><path id="path3682" stroke-linejoin="round" d="m0,0c0.251-4.452,4.028-6.191,8.552-5.936,4.525,0.256,8.097,2.152,7.845,6.604-0.251,4.453-4.103,7.514-8.627,7.258s-8.021-3.473-7.77-7.926z" stroke="#231f20" stroke-linecap="round" stroke-miterlimit="10" stroke-dasharray="none" stroke-width="0.5" fill="none"/><g id="g3684" transform="translate(10.8735,-0.4991)"><path id="path3686" fill-rule="nonzero" fill="#f6a925" d="M0,0-4.89-0.276-2.445-3.451,0,0z"/><path id="path3688" stroke-linejoin="miter" d="M0,0-4.89-0.276-2.445-3.451,0,0z" stroke="#231f20" stroke-linecap="butt" stroke-miterlimit="10" stroke-dasharray="none" stroke-width="0.5" fill="none"/><g id="g3690" transform="translate(-5.1411,2.6739)"><path id="path3692" fill-rule="nonzero" fill="#231f20" d="m0,0c0-0.38-0.28-0.688-0.625-0.688s-0.625,0.308-0.625,0.688,0.28,0.688,0.625,0.688,0.625-0.308,0.625-0.688"/><g id="g3694" transform="translate(5.5,0)"><path id="path3696" fill-rule="nonzero" fill="#231f20" d="m0,0c0-0.38-0.28-0.688-0.625-0.688s-0.625,0.308-0.625,0.688,0.28,0.688,0.625,0.688,0.625-0.308,0.625-0.688"/><g id="g3698" transform="translate(-22.7139,-25.7593)"><path id="path3700" fill-rule="nonzero" fill="#dfdeb6" d="m0,0c0.292-5.179,4.751-8.341,10.014-8.044,5.262,0.298,9.354,3.642,9.062,8.82-0.293,5.181-4.775,8.742-10.037,8.444-5.263-0.297-9.331-4.039-9.039-9.22"/><path id="path3702" stroke-linejoin="round" d="m0,0c0.292-5.179,4.751-8.341,10.014-8.044,5.262,0.298,9.354,3.642,9.062,8.82-0.293,5.181-4.775,8.742-10.037,8.444-5.263-0.297-9.331-4.039-9.039-9.22z" stroke="#231f20" stroke-linecap="round" stroke-miterlimit="10" stroke-dasharray="none" stroke-width="0.5" fill="none"/><g id="g3704" transform="translate(12.5132,5.3135)"><path id="path3706" stroke-linejoin="bevel" d="m0,0s2.775-7.362,0.457-8.083c-2.319-0.721-2.159,0.978-2.624,3.903,0,0-2.419-6.791-3.318,0.264,0,0-0.789-3.746-3.584-2.102" stroke="#231f20" stroke-linecap="round" stroke-miterlimit="10" stroke-dasharray="none" stroke-width="0.5" fill="none"/><g id="g3708" transform="translate(12.6274,6.4009)"><path id="path3710" fill-rule="nonzero" fill="#231f20" d="m0,0c-1.413-25.818-0.835-48.2,1.734-67.146,0.063-0.452-0.048-0.868-0.338-1.252-0.288-0.385-0.673-0.61-1.156-0.674-0.48-0.065-0.914,0.047-1.3,0.336-0.385,0.289-0.611,0.689-0.674,1.205-1.286,10.018-2.056,21.098-2.312,33.236-6.808-0.771-13.872-1.157-21.194-1.157,0.128-12.844,1.156-23.697,3.083-32.562,0.063-0.513-0.033-0.963-0.289-1.349-0.257-0.385-0.626-0.625-1.109-0.721-0.48-0.098-0.914-0.016-1.299,0.24-0.386,0.256-0.643,0.612-0.771,1.061-1.028,5.008-1.782,10.596-2.265,16.763-0.48,6.166-0.738,11.254-0.77,15.269-0.033,4.013,0,9.84,0.097,17.484,0.095,7.642,0.144,12.812,0.144,15.51,0,0.448,0.176,0.85,0.529,1.204,0.353,0.353,0.755,0.531,1.204,0.531,0.45,0,0.852-0.178,1.206-0.531,0.351-0.354,0.529-0.756,0.529-1.204,0-3.019-0.048-7.675-0.145-13.968-0.095-6.295-0.144-11.048-0.144-14.258,7.322,0,14.354,0.417,21.097,1.252-0.129,10.211,0.097,20.52,0.675,30.924,0,0.448,0.193,0.833,0.577,1.156,0.386,0.32,0.803,0.481,1.253,0.481s0.834-0.192,1.157-0.578c0.32-0.385,0.481-0.804,0.481-1.252"/><path id="path3712" stroke-linejoin="miter" d="m0,0c-1.413-25.818-0.835-48.2,1.734-67.146,0.063-0.452-0.048-0.868-0.338-1.252-0.288-0.385-0.673-0.61-1.156-0.674-0.48-0.065-0.914,0.047-1.3,0.336-0.385,0.289-0.611,0.689-0.674,1.205-1.286,10.018-2.056,21.098-2.312,33.236-6.808-0.771-13.872-1.157-21.194-1.157,0.128-12.844,1.156-23.697,3.083-32.562,0.063-0.513-0.033-0.963-0.289-1.349-0.257-0.385-0.626-0.625-1.109-0.721-0.48-0.098-0.914-0.016-1.299,0.24-0.386,0.256-0.643,0.612-0.771,1.061-1.028,5.008-1.782,10.596-2.265,16.763-0.48,6.166-0.738,11.254-0.77,15.269-0.033,4.013,0,9.84,0.097,17.484,0.095,7.642,0.144,12.812,0.144,15.51,0,0.448,0.176,0.85,0.529,1.204,0.353,0.353,0.755,0.531,1.204,0.531,0.45,0,0.852-0.178,1.206-0.531,0.351-0.354,0.529-0.756,0.529-1.204,0-3.019-0.048-7.675-0.145-13.968-0.095-6.295-0.144-11.048-0.144-14.258,7.322,0,14.354,0.417,21.097,1.252-0.129,10.211,0.097,20.52,0.675,30.924,0,0.448,0.193,0.833,0.577,1.156,0.386,0.32,0.803,0.481,1.253,0.481s0.834-0.192,1.157-0.578c0.32-0.385,0.481-0.804,0.481-1.252z" stroke="#231f20" stroke-linecap="butt" stroke-miterlimit="10" stroke-dasharray="none" stroke-width="1" fill="none"/><g id="g3714" transform="translate(330.189,-0.2569)"><path id="path3716" fill-rule="nonzero" fill="#f2a81c" d="m0,0c0-0.69-0.624-1.25-1.392-1.25-0.767,0-1.39,0.56-1.39,1.25,0,0.691,0.623,1.25,1.39,1.25,0.768,0,1.392-0.559,1.392-1.25"/><path id="path3718" stroke-linejoin="miter" d="m0,0c0-0.69-0.624-1.25-1.392-1.25-0.767,0-1.39,0.56-1.39,1.25,0,0.691,0.623,1.25,1.39,1.25,0.768,0,1.392-0.559,1.392-1.25z" stroke="#231f20" stroke-linecap="butt" stroke-miterlimit="10" stroke-dasharray="none" stroke-width="0.5" fill="none"/><g id="g3720" transform="translate(6.1514,4.2246)"><path id="path3722" fill-rule="nonzero" fill="#f2a81c" d="M0,0-5.051-5.95-8.934-0.678,0,0z"/><path id="path3724" stroke-linejoin="miter" d="M0,0-5.051-5.95-8.934-0.678,0,0z" stroke="#231f20" stroke-linecap="butt" stroke-miterlimit="10" stroke-dasharray="none" stroke-width="0.5" fill="none"/></g></g></g></g></g></g></g></g></g></g></g></g></g></g></g></g></g></g></g></g></g></svg>
